<?xml version="1.0" encoding="utf-8"?>
<!-- Generator: Adobe Illustrator 19.2.1, SVG Export Plug-In . SVG Version: 6.00 Build 0)  -->
<svg version="1.1" xmlns="http://www.w3.org/2000/svg" xmlns:xlink="http://www.w3.org/1999/xlink" x="0px" y="0px"
	 viewBox="0 0 612 792" style="enable-background:new 0 0 612 792;" xml:space="preserve">
<style type="text/css">
	.st0{fill:url(#SVGID_1_);stroke:#FFFFFF;stroke-width:14;stroke-linecap:round;stroke-linejoin:round;stroke-miterlimit:10;}
	.st1{fill:none;stroke:#FFFFFF;stroke-width:12;stroke-linecap:round;stroke-linejoin:round;stroke-miterlimit:10;}
</style>
<g id="Layer_5">
	<radialGradient id="SVGID_1_" cx="238.9617" cy="278.1199" r="135.5573" gradientUnits="userSpaceOnUse">
		<stop  offset="0" style="stop-color:#93278F;stop-opacity:0.5"/>
		<stop  offset="1" style="stop-color:#662D91"/>
	</radialGradient>
	<circle class="st0" cx="239" cy="278.1" r="135.6"/>
</g>
<g id="Layer_3">
	<g>
		<path class="st1" d="M275,358.4c-5.4-4.7-11.3-10.2-11.7-17.4c-0.6-10.9,11.6-18.2,22.4-19.4c10.9-1.2,22.1-0.1,32.4-3.8
			c14.8-5.3,19.7-22.5,17.5-36.9c-2.2-14.5-11.1-27-21.3-37.5c-25.9-26.5-62.3-43.1-99.4-42.7c-18.1,0.2-36.9,4.7-50.8,16.3
			c-13.9,11.6-22,31.3-16.3,48.6c5.4,16.5,21.3,27.3,37.3,34c16.2,6.8,33.7,10.8,51.3,11.6c6.9,0.3,14.1,0.2,20.1-3.9
			c3.6-2.5,6.1-6.4,6.2-10.8c0.2-10.8-13.2-15.7-23.7-18.4c-10.6-2.7-20.9-6.4-30.8-11c-3.7-1.7-7.1-3.7-8.9-7.6
			c-1.8-4-0.9-8.6,1.8-12.1c3.6-4.6,9.2-8.1,14.8-9.5c26.3-6.9,56.1,2.6,74.9,22.3c3.6,3.8,6.3,8.3,7.8,13.2
			c2.2,7-0.5,14.2-4.6,18.2"/>
	</g>
</g>
</svg>
