<?xml version="1.0" encoding="UTF-8" standalone="no"?><!DOCTYPE svg PUBLIC "-//W3C//DTD SVG 1.1//EN" "http://www.w3.org/Graphics/SVG/1.1/DTD/svg11.dtd"><svg width="100%" height="100%" viewBox="0 0 296 296" version="1.1" xmlns="http://www.w3.org/2000/svg" xmlns:xlink="http://www.w3.org/1999/xlink" xml:space="preserve" style="fill-rule:evenodd;clip-rule:evenodd;stroke-linecap:round;stroke-linejoin:round;stroke-miterlimit:1.41421;"><g><circle id="Layer_5" cx="147.725" cy="147.724" r="135.6" style="fill:url(#_Radial1);stroke-width:14px;stroke:#fff;"/><path id="Layer_3" d="M183.725,228.024c-5.4,-4.7 -11.301,-10.2 -11.7,-17.4c-0.601,-10.9 11.599,-18.2 22.399,-19.4c10.901,-1.2 22.101,-0.1 32.401,-3.8c14.799,-5.3 19.7,-22.5 17.5,-36.9c-2.201,-14.5 -11.101,-27 -21.301,-37.5c-25.9,-26.5 -62.299,-43.1 -99.399,-42.7c-18.1,0.2 -36.9,4.7 -50.801,16.3c-13.9,11.6 -21.999,31.3 -16.299,48.6c5.399,16.5 21.3,27.3 37.3,34c16.2,6.8 33.7,10.8 51.3,11.6c6.9,0.3 14.1,0.2 20.1,-3.9c3.6,-2.5 6.1,-6.4 6.2,-10.8c0.2,-10.8 -13.2,-15.7 -23.7,-18.4c-10.6,-2.7 -20.9,-6.4 -30.801,-11c-3.699,-1.7 -7.099,-3.7 -8.899,-7.6c-1.8,-4 -0.9,-8.6 1.8,-12.1c3.6,-4.6 9.2,-8.1 14.8,-9.5c26.3,-6.9 56.1,2.6 74.9,22.3c3.6,3.8 6.3,8.3 7.8,13.2c2.2,7 -0.5,14.2 -4.6,18.2" style="fill:none;stroke-width:12px;stroke:#fff;"/></g><defs><radialGradient id="_Radial1" cx="0" cy="0" r="1" gradientUnits="userSpaceOnUse" gradientTransform="matrix(135.6,0,0,135.6,147.725,147.724)"><stop offset="0%" style="stop-color:#2196f3;stop-opacity:1"/><stop offset="100%" style="stop-color:#1976d2;stop-opacity:1"/></radialGradient></defs></svg>